<svg width="501" height="590" viewBox="0 0 501 590" fill="none" xmlns="http://www.w3.org/2000/svg">
<path d="M423.59 225.95L500.5 181.57L485.75 156.01C454.56 100.18 380.39 -13.3799 247.63 1.74009C207.29 6.32009 126.2 52.3301 82.12 78.9001C71.68 83.6901 61.44 90.0701 51.44 98.0501C25.9 118.43 11.31 143.9 8.08 173.73C1.63 233.21 41.66 298.84 86.71 358.32L36.93 387.6L36.83 387.42L0.5 408.8L3.53 413.99C26.01 452.69 94.41 570.44 183.17 587.1C190.4 588.46 197.56 589.13 204.67 589.13C218.94 589.13 232.95 586.37 246.63 580.92L246.71 581.08L248.65 580.1C254.32 577.73 259.92 574.89 265.47 571.58L391.84 507.57L392.34 507.31C432.12 485.79 460.62 449.92 472.58 406.3C484.54 362.68 478.32 317.29 455.07 278.49L423.59 225.95ZM252.39 43.6201C280.02 40.4801 360.99 31.3101 442.71 166.27L325.62 233.84C301.11 192.24 244.96 103.22 172.68 76.2201C205.55 59.0501 236.1 45.4701 252.39 43.6201ZM49.98 178.28C51.96 160.01 60.86 144.72 77.11 131.54C84.49 126.84 92.73 121.74 101.52 116.42C115.35 110.49 129.32 108.91 143.75 111.62C161.75 115 180.42 124.86 199.69 141.06L151.66 172.99C151.64 172.95 151.61 172.91 151.58 172.88L116.52 196.26C127.94 213.39 144.3 233.74 163.24 257.3C194.17 295.78 231.65 342.43 256.59 387.39L194.43 426.27C185.17 414.1 174.41 400.83 162.65 386.33C112.31 324.25 43.37 239.24 49.98 178.28ZM190.94 545.69C150.05 538.02 105.67 497 58.75 423.67L112.9 391.82C118.64 398.98 180.81 484.49 180.81 484.49L274.63 425.81C281.84 445.2 285.42 463.67 283.58 480.32C281.56 498.58 272.85 513.63 256.95 526.31C252.99 529.47 249.04 532.25 245.08 534.68L231.44 541.59C218.18 546.92 204.77 548.28 190.94 545.69ZM431.94 395.17C423.07 427.51 401.98 454.12 372.53 470.12L323.93 494.74C324.57 491.53 325.1 488.27 325.47 484.95C334.52 403.11 257.75 307.62 196.08 230.9C189.28 222.44 182.82 214.41 176.86 206.85L230.16 171.42C251.1 195.45 272.65 226.5 294.72 264.49L297.86 269.88L298.09 269.75L310.48 291.23L387.08 247.03L418.92 300.17C436.21 329 440.83 362.74 431.94 395.17Z" fill="#121212"/>
</svg>
