<svg width="501" height="593" viewBox="0 0 501 593" fill="none" xmlns="http://www.w3.org/2000/svg">
<path d="M422.74 226.02L500.79 180.98L487.15 157.33C462.18 112.63 435.5 78.43 405.58 52.78C358.75 12.62 305.8 -4.42995 248.18 2.14005C207.86 6.72005 126.35 52.92 81.35 80.06L81.1 80.2C70.7 84.97 60.41 91.4 50.51 99.3C25.18 119.52 10.7 144.75 7.5 174.3C0.72 236.91 46.28 306.25 86.74 359.67L88.53 362.03L33.2 394.58L33.09 394.4L0.780029 413.4L2.53003 416.4C25.18 455.41 94.11 574.06 182.97 590.75C190.1 592.09 197.27 592.76 204.29 592.76C218.33 592.76 232.32 590.02 245.89 584.62L247.89 583.81C253.5 581.46 259.13 578.62 264.63 575.34L264.79 575.25L393.46 510.07C433.15 488.6 461.6 452.79 473.55 409.24C485.48 365.69 479.28 320.38 456.06 281.64L422.74 226.02ZM170.63 72.73C209.71 52.33 237.22 41.11 252.41 39.38C257.62 38.79 264.99 37.95 274.02 37.95C288.76 37.95 307.96 40.17 329.67 49.25C372.52 67.17 412.34 106.13 448.01 165.04L449.41 167.35L326.04 238.53L324.71 236.29C273.94 150.1 222.19 96.69 170.91 77.53L165.38 75.47L170.63 72.73ZM44.77 178.32C45.8 168.7 48.66 159.88 53.39 151.71C58.11 143.56 64.7 136.08 73.25 129.15L73.5 128.97C81.21 124.06 89.5601 118.89 98.3101 113.6L98.64 113.43C113.23 107.17 127.74 105.53 143.01 108.4C161.59 111.89 181.09 122.13 200.96 138.84L203.65 141.1L149.81 176.88L149.74 176.76L118.56 197.55C129.98 214.34 145.9 234.16 164.23 256.97L164.34 257.1C195.3 295.61 233.83 343.53 259.29 389.43L260.5 391.62L193.3 433.66L191.85 431.74C182.45 419.39 171.37 405.74 159.66 391.29C108.28 327.98 37.95 241.25 44.77 178.32ZM286.97 485.27C284.84 504.53 275.69 520.37 258.98 533.7C254.92 536.93 250.79 539.85 246.67 542.37L246.49 542.48L232.45 549.59C223.04 553.36 213.69 555.25 204.14 555.25C199.44 555.25 194.7 554.8 189.89 553.89C168.81 549.94 146.86 537.46 124.17 516.58C101.48 495.71 78.0499 466.45 54.0699 428.94L52.6 426.63L111.85 391.79L113.27 393.56C118.65 400.27 171.12 472.38 180.79 485.69L276.62 425.75L277.75 428.77C285.66 450.06 288.76 469.07 286.97 485.27ZM437.39 399.31C428.2 432.8 406.35 460.37 375.84 476.96L321.64 504.41L322.7 499.09C323.38 495.73 323.88 492.55 324.23 489.39C333.29 407.46 255.81 311.07 193.54 233.63C186.97 225.46 180.17 217.01 174.02 209.21L172.25 206.97L230.63 168.16L232.15 169.91C253.45 194.36 275.59 226.25 297.93 264.73L299.78 267.91L300.02 267.76L312.6 289.56L390.27 244.75L423.9 300.87C441.81 330.77 446.6 365.72 437.39 399.31Z" fill="white"/>
</svg>
